<mxfile host="app.diagrams.net" modified="2020-12-30T11:35:24.791Z" agent="5.0 (Macintosh; Intel Mac OS X 10_14_5) AppleWebKit/537.36 (KHTML, like Gecko) Chrome/87.0.4280.88 Safari/537.36" etag="39gLI6Tp5jIyZNosSGHv" version="14.0.1" type="github" pages="3">
  <diagram id="T-0TTRabOmarUsiCqBks" name="Page-1">
    <mxGraphModel dx="1426" dy="803" grid="1" gridSize="10" guides="1" tooltips="1" connect="1" arrows="1" fold="1" page="1" pageScale="1" pageWidth="827" pageHeight="1169" math="0" shadow="0">
      <root>
        <mxCell id="0" />
        <mxCell id="1" parent="0" />
        <mxCell id="knxrKgOrFJBOttm7FoQy-13" value="" style="edgeStyle=orthogonalEdgeStyle;rounded=0;orthogonalLoop=1;jettySize=auto;html=1;" parent="1" source="knxrKgOrFJBOttm7FoQy-11" target="knxrKgOrFJBOttm7FoQy-12" edge="1">
          <mxGeometry relative="1" as="geometry">
            <Array as="points">
              <mxPoint x="40" y="90" />
            </Array>
          </mxGeometry>
        </mxCell>
        <mxCell id="knxrKgOrFJBOttm7FoQy-11" value="&lt;span style=&quot;color: rgb(51 , 51 , 51) ; font-family: &amp;#34;vollkorn&amp;#34; , &amp;#34;palatino&amp;#34; , &amp;#34;times&amp;#34; ; font-size: 19px ; text-align: justify ; background-color: rgb(254 , 254 , 254)&quot;&gt;render&lt;/span&gt;" style="rounded=0;whiteSpace=wrap;html=1;" parent="1" vertex="1">
          <mxGeometry x="20" y="20" width="120" height="40" as="geometry" />
        </mxCell>
        <mxCell id="knxrKgOrFJBOttm7FoQy-15" value="" style="edgeStyle=orthogonalEdgeStyle;rounded=0;orthogonalLoop=1;jettySize=auto;html=1;" parent="1" source="knxrKgOrFJBOttm7FoQy-12" target="knxrKgOrFJBOttm7FoQy-14" edge="1">
          <mxGeometry relative="1" as="geometry">
            <Array as="points">
              <mxPoint x="90" y="170" />
              <mxPoint x="333" y="170" />
            </Array>
          </mxGeometry>
        </mxCell>
        <mxCell id="knxrKgOrFJBOttm7FoQy-12" value="&lt;span style=&quot;color: rgb(51 , 51 , 51) ; font-family: &amp;#34;vollkorn&amp;#34; , &amp;#34;palatino&amp;#34; , &amp;#34;times&amp;#34; ; font-size: 19px ; text-align: justify ; background-color: rgb(254 , 254 , 254)&quot;&gt;legacyRenderSubtreeIntoContainer&lt;/span&gt;" style="whiteSpace=wrap;html=1;rounded=0;" parent="1" vertex="1">
          <mxGeometry x="70" y="70" width="310" height="60" as="geometry" />
        </mxCell>
        <mxCell id="knxrKgOrFJBOttm7FoQy-17" value="" style="edgeStyle=orthogonalEdgeStyle;rounded=0;orthogonalLoop=1;jettySize=auto;html=1;" parent="1" source="knxrKgOrFJBOttm7FoQy-14" target="knxrKgOrFJBOttm7FoQy-16" edge="1">
          <mxGeometry relative="1" as="geometry">
            <Array as="points">
              <mxPoint x="160" y="240" />
              <mxPoint x="319" y="240" />
            </Array>
          </mxGeometry>
        </mxCell>
        <mxCell id="knxrKgOrFJBOttm7FoQy-26" value="" style="edgeStyle=orthogonalEdgeStyle;rounded=0;orthogonalLoop=1;jettySize=auto;html=1;" parent="1" source="knxrKgOrFJBOttm7FoQy-14" target="knxrKgOrFJBOttm7FoQy-25" edge="1">
          <mxGeometry relative="1" as="geometry" />
        </mxCell>
        <mxCell id="knxrKgOrFJBOttm7FoQy-14" value="&lt;span style=&quot;color: rgb(51 , 51 , 51) ; font-family: &amp;#34;vollkorn&amp;#34; , &amp;#34;palatino&amp;#34; , &amp;#34;times&amp;#34; ; font-size: 19px ; text-align: justify ; background-color: rgb(254 , 254 , 254)&quot;&gt;legacyCreateRootFromDOMContainer&lt;/span&gt;" style="whiteSpace=wrap;html=1;rounded=0;" parent="1" vertex="1">
          <mxGeometry x="130" y="140" width="335" height="60" as="geometry" />
        </mxCell>
        <mxCell id="knxrKgOrFJBOttm7FoQy-19" value="" style="edgeStyle=orthogonalEdgeStyle;rounded=0;orthogonalLoop=1;jettySize=auto;html=1;" parent="1" source="knxrKgOrFJBOttm7FoQy-16" target="knxrKgOrFJBOttm7FoQy-18" edge="1">
          <mxGeometry relative="1" as="geometry">
            <Array as="points">
              <mxPoint x="210" y="330" />
            </Array>
          </mxGeometry>
        </mxCell>
        <mxCell id="knxrKgOrFJBOttm7FoQy-16" value="&lt;span style=&quot;color: rgb(51 , 51 , 51) ; font-family: &amp;#34;vollkorn&amp;#34; , &amp;#34;palatino&amp;#34; , &amp;#34;times&amp;#34; ; font-size: 19px ; text-align: justify ; background-color: rgb(254 , 254 , 254)&quot;&gt;createLegacyRoot&lt;/span&gt;" style="whiteSpace=wrap;html=1;rounded=0;" parent="1" vertex="1">
          <mxGeometry x="190" y="220" width="162.5" height="60" as="geometry" />
        </mxCell>
        <mxCell id="knxrKgOrFJBOttm7FoQy-21" value="" style="edgeStyle=orthogonalEdgeStyle;rounded=0;orthogonalLoop=1;jettySize=auto;html=1;" parent="1" source="knxrKgOrFJBOttm7FoQy-18" target="knxrKgOrFJBOttm7FoQy-20" edge="1">
          <mxGeometry relative="1" as="geometry">
            <Array as="points">
              <mxPoint x="270" y="390" />
              <mxPoint x="352" y="390" />
            </Array>
          </mxGeometry>
        </mxCell>
        <mxCell id="knxrKgOrFJBOttm7FoQy-18" value="&lt;span style=&quot;color: rgb(51 , 51 , 51) ; font-family: &amp;#34;vollkorn&amp;#34; , &amp;#34;palatino&amp;#34; , &amp;#34;times&amp;#34; ; font-size: 19px ; text-align: justify ; background-color: rgb(254 , 254 , 254)&quot;&gt;new ReactDOMBlockingRoot&lt;/span&gt;" style="whiteSpace=wrap;html=1;rounded=0;" parent="1" vertex="1">
          <mxGeometry x="237.5" y="290" width="212.5" height="60" as="geometry" />
        </mxCell>
        <mxCell id="knxrKgOrFJBOttm7FoQy-23" value="" style="edgeStyle=orthogonalEdgeStyle;rounded=0;orthogonalLoop=1;jettySize=auto;html=1;" parent="1" source="knxrKgOrFJBOttm7FoQy-20" target="knxrKgOrFJBOttm7FoQy-22" edge="1">
          <mxGeometry relative="1" as="geometry">
            <Array as="points">
              <mxPoint x="330" y="470" />
              <mxPoint x="389" y="470" />
            </Array>
          </mxGeometry>
        </mxCell>
        <mxCell id="knxrKgOrFJBOttm7FoQy-20" value="&lt;span style=&quot;color: rgb(51, 51, 51); font-family: vollkorn, palatino, times; font-size: 19px; font-style: normal; font-weight: normal; letter-spacing: normal; text-align: justify; text-indent: 0px; text-transform: none; word-spacing: 0px; background-color: rgb(254, 254, 254); text-decoration: none; display: inline; float: none;&quot;&gt;createRootImpl&lt;/span&gt;" style="whiteSpace=wrap;html=1;rounded=0;" parent="1" vertex="1">
          <mxGeometry x="300" y="370" width="136.25" height="60" as="geometry" />
        </mxCell>
        <mxCell id="pNXK3rBJTafSsgdG6akQ-2" value="" style="edgeStyle=orthogonalEdgeStyle;rounded=0;orthogonalLoop=1;jettySize=auto;html=1;" edge="1" parent="1" source="knxrKgOrFJBOttm7FoQy-22" target="pNXK3rBJTafSsgdG6akQ-1">
          <mxGeometry relative="1" as="geometry">
            <Array as="points">
              <mxPoint x="370" y="560" />
            </Array>
          </mxGeometry>
        </mxCell>
        <mxCell id="knxrKgOrFJBOttm7FoQy-22" value="&lt;span style=&quot;color: rgb(51 , 51 , 51) ; font-family: &amp;#34;vollkorn&amp;#34; , &amp;#34;palatino&amp;#34; , &amp;#34;times&amp;#34; ; font-size: 19px ; text-align: justify ; background-color: rgb(254 , 254 , 254)&quot;&gt;createFiberRoot&lt;/span&gt;" style="whiteSpace=wrap;html=1;rounded=0;" parent="1" vertex="1">
          <mxGeometry x="352.5" y="450" width="161.88" height="60" as="geometry" />
        </mxCell>
        <mxCell id="knxrKgOrFJBOttm7FoQy-28" value="" style="edgeStyle=orthogonalEdgeStyle;rounded=0;orthogonalLoop=1;jettySize=auto;html=1;" parent="1" source="knxrKgOrFJBOttm7FoQy-25" target="knxrKgOrFJBOttm7FoQy-27" edge="1">
          <mxGeometry relative="1" as="geometry">
            <Array as="points">
              <mxPoint x="550" y="320" />
            </Array>
          </mxGeometry>
        </mxCell>
        <mxCell id="knxrKgOrFJBOttm7FoQy-33" value="" style="edgeStyle=orthogonalEdgeStyle;rounded=0;orthogonalLoop=1;jettySize=auto;html=1;" parent="1" source="knxrKgOrFJBOttm7FoQy-25" target="knxrKgOrFJBOttm7FoQy-32" edge="1">
          <mxGeometry relative="1" as="geometry">
            <Array as="points">
              <mxPoint x="520" y="400" />
            </Array>
          </mxGeometry>
        </mxCell>
        <mxCell id="knxrKgOrFJBOttm7FoQy-25" value="&lt;span style=&quot;color: rgb(51, 51, 51); font-family: vollkorn, palatino, times; font-size: 19px; font-style: normal; font-weight: normal; letter-spacing: normal; text-align: justify; text-indent: 0px; text-transform: none; word-spacing: 0px; background-color: rgb(254, 254, 254); text-decoration: none; display: inline; float: none;&quot;&gt;updateContainer&lt;/span&gt;" style="whiteSpace=wrap;html=1;rounded=0;" parent="1" vertex="1">
          <mxGeometry x="490" y="220" width="162.5" height="60" as="geometry" />
        </mxCell>
        <mxCell id="knxrKgOrFJBOttm7FoQy-27" value="&lt;span style=&quot;color: rgb(51 , 51 , 51) ; font-family: &amp;#34;vollkorn&amp;#34; , &amp;#34;palatino&amp;#34; , &amp;#34;times&amp;#34; ; font-size: 19px ; text-align: justify ; background-color: rgb(254 , 254 , 254)&quot;&gt;enqueueUpdate&lt;/span&gt;" style="whiteSpace=wrap;html=1;rounded=0;" parent="1" vertex="1">
          <mxGeometry x="590" y="290" width="150" height="60" as="geometry" />
        </mxCell>
        <mxCell id="knxrKgOrFJBOttm7FoQy-36" value="" style="edgeStyle=orthogonalEdgeStyle;rounded=0;orthogonalLoop=1;jettySize=auto;html=1;" parent="1" source="knxrKgOrFJBOttm7FoQy-30" target="knxrKgOrFJBOttm7FoQy-35" edge="1">
          <mxGeometry relative="1" as="geometry" />
        </mxCell>
        <mxCell id="knxrKgOrFJBOttm7FoQy-38" style="edgeStyle=orthogonalEdgeStyle;rounded=0;orthogonalLoop=1;jettySize=auto;html=1;" parent="1" source="knxrKgOrFJBOttm7FoQy-30" target="knxrKgOrFJBOttm7FoQy-20" edge="1">
          <mxGeometry relative="1" as="geometry">
            <mxPoint x="410" y="250" as="targetPoint" />
            <Array as="points">
              <mxPoint x="480" y="40" />
              <mxPoint x="480" y="400" />
            </Array>
          </mxGeometry>
        </mxCell>
        <mxCell id="knxrKgOrFJBOttm7FoQy-30" value="&lt;span style=&quot;color: rgb(51 , 51 , 51) ; font-family: &amp;#34;vollkorn&amp;#34; , &amp;#34;palatino&amp;#34; , &amp;#34;times&amp;#34; ; font-size: 19px ; text-align: justify ; background-color: rgb(254 , 254 , 254)&quot;&gt;createRoot&lt;/span&gt;" style="rounded=0;whiteSpace=wrap;html=1;" parent="1" vertex="1">
          <mxGeometry x="600" y="20" width="120" height="40" as="geometry" />
        </mxCell>
        <mxCell id="zcelUr1XZiUG5QZzuq9t-2" value="" style="edgeStyle=orthogonalEdgeStyle;rounded=0;orthogonalLoop=1;jettySize=auto;html=1;" edge="1" parent="1" source="knxrKgOrFJBOttm7FoQy-32" target="zcelUr1XZiUG5QZzuq9t-1">
          <mxGeometry relative="1" as="geometry" />
        </mxCell>
        <mxCell id="zcelUr1XZiUG5QZzuq9t-4" value="" style="edgeStyle=orthogonalEdgeStyle;rounded=0;orthogonalLoop=1;jettySize=auto;html=1;" edge="1" parent="1" source="knxrKgOrFJBOttm7FoQy-32" target="zcelUr1XZiUG5QZzuq9t-3">
          <mxGeometry relative="1" as="geometry" />
        </mxCell>
        <mxCell id="knxrKgOrFJBOttm7FoQy-32" value="&lt;span style=&quot;color: rgb(51 , 51 , 51) ; font-family: &amp;#34;vollkorn&amp;#34; , &amp;#34;palatino&amp;#34; , &amp;#34;times&amp;#34; ; font-size: 19px ; text-align: justify ; background-color: rgb(254 , 254 , 254)&quot;&gt;scheduleUpdateOnFiber&lt;/span&gt;" style="whiteSpace=wrap;html=1;rounded=0;" parent="1" vertex="1">
          <mxGeometry x="590" y="370" width="220" height="60" as="geometry" />
        </mxCell>
        <mxCell id="knxrKgOrFJBOttm7FoQy-37" style="edgeStyle=orthogonalEdgeStyle;rounded=0;orthogonalLoop=1;jettySize=auto;html=1;exitX=0.5;exitY=1;exitDx=0;exitDy=0;entryX=0.75;entryY=0;entryDx=0;entryDy=0;" parent="1" source="knxrKgOrFJBOttm7FoQy-35" target="knxrKgOrFJBOttm7FoQy-25" edge="1">
          <mxGeometry relative="1" as="geometry">
            <Array as="points">
              <mxPoint x="925" y="170" />
              <mxPoint x="612" y="170" />
            </Array>
          </mxGeometry>
        </mxCell>
        <mxCell id="knxrKgOrFJBOttm7FoQy-35" value="&lt;span style=&quot;color: rgb(51 , 51 , 51) ; font-family: &amp;#34;vollkorn&amp;#34; , &amp;#34;palatino&amp;#34; , &amp;#34;times&amp;#34; ; font-size: 19px ; text-align: justify ; background-color: rgb(254 , 254 , 254)&quot;&gt;ReactDOMRoot.prototype.render&lt;/span&gt;" style="whiteSpace=wrap;html=1;rounded=0;" parent="1" vertex="1">
          <mxGeometry x="780" y="10" width="290" height="60" as="geometry" />
        </mxCell>
        <mxCell id="zcelUr1XZiUG5QZzuq9t-1" value="&lt;font style=&quot;font-size: 16px&quot;&gt;performSyncWorkOnRoot&lt;/font&gt;" style="whiteSpace=wrap;html=1;rounded=0;" vertex="1" parent="1">
          <mxGeometry x="605" y="460" width="190" height="60" as="geometry" />
        </mxCell>
        <mxCell id="zcelUr1XZiUG5QZzuq9t-6" value="" style="edgeStyle=orthogonalEdgeStyle;rounded=0;orthogonalLoop=1;jettySize=auto;html=1;" edge="1" parent="1" source="zcelUr1XZiUG5QZzuq9t-3" target="zcelUr1XZiUG5QZzuq9t-5">
          <mxGeometry relative="1" as="geometry" />
        </mxCell>
        <mxCell id="zcelUr1XZiUG5QZzuq9t-3" value="&lt;font style=&quot;font-size: 16px&quot;&gt;ensureRootIsScheduled&lt;/font&gt;" style="whiteSpace=wrap;html=1;rounded=0;" vertex="1" parent="1">
          <mxGeometry x="940" y="370" width="190" height="60" as="geometry" />
        </mxCell>
        <mxCell id="zcelUr1XZiUG5QZzuq9t-5" value="&lt;font style=&quot;font-size: 16px&quot;&gt;scheduleCallback(schedulerPriorityLevel,performConcurrentWorkOnRoot.bind(null, root));&lt;/font&gt;" style="whiteSpace=wrap;html=1;rounded=0;" vertex="1" parent="1">
          <mxGeometry x="705" y="550" width="660" height="60" as="geometry" />
        </mxCell>
        <mxCell id="pNXK3rBJTafSsgdG6akQ-1" value="&lt;font style=&quot;font-size: 16px&quot;&gt;createHostRootFiber&lt;/font&gt;" style="whiteSpace=wrap;html=1;rounded=0;" vertex="1" parent="1">
          <mxGeometry x="414" y="530" width="166.56" height="60" as="geometry" />
        </mxCell>
      </root>
    </mxGraphModel>
  </diagram>
  <diagram id="I2QeTn85nPj7NLiVw9hx" name="Page-2">
    <mxGraphModel dx="2253" dy="1972" grid="1" gridSize="10" guides="1" tooltips="1" connect="1" arrows="1" fold="1" page="1" pageScale="1" pageWidth="827" pageHeight="1169" math="0" shadow="0">
      <root>
        <mxCell id="XqVWHYIMarAri33oOuAz-0" />
        <mxCell id="XqVWHYIMarAri33oOuAz-1" parent="XqVWHYIMarAri33oOuAz-0" />
        <mxCell id="WqtkJ0UClnYk493TSoWW-2" value="" style="edgeStyle=orthogonalEdgeStyle;rounded=0;orthogonalLoop=1;jettySize=auto;html=1;" parent="XqVWHYIMarAri33oOuAz-1" source="WqtkJ0UClnYk493TSoWW-0" target="WqtkJ0UClnYk493TSoWW-1" edge="1">
          <mxGeometry relative="1" as="geometry" />
        </mxCell>
        <mxCell id="WqtkJ0UClnYk493TSoWW-0" value="&lt;pre class=&quot;language-sh&quot; style=&quot;background: transparent ; font-family: &amp;#34;consolas&amp;#34; , &amp;#34;monaco&amp;#34; , &amp;#34;andale mono&amp;#34; , &amp;#34;ubuntu mono&amp;#34; , monospace ; font-size: 16px ; text-align: left ; word-spacing: 0px ; word-break: normal ; overflow-wrap: normal ; line-height: 1.4 ; padding: 1.25rem 1.5rem ; margin: 0.85rem 0px ; overflow: auto ; border-radius: 6px ; position: relative ; z-index: 1 ; font-style: normal ; font-weight: 400 ; letter-spacing: normal ; text-indent: 0px ; text-transform: none&quot;&gt;&lt;pre class=&quot;language-sh&quot; style=&quot;background: transparent ; font-family: &amp;#34;consolas&amp;#34; , &amp;#34;monaco&amp;#34; , &amp;#34;andale mono&amp;#34; , &amp;#34;ubuntu mono&amp;#34; , monospace ; word-break: normal ; overflow-wrap: normal ; line-height: 1.4 ; padding: 1.25rem 1.5rem ; margin-top: 0.85rem ; margin-bottom: 0.85rem ; overflow: auto ; border-radius: 6px ; position: relative ; z-index: 1&quot;&gt;&lt;code style=&quot;padding: 0px ; margin: 0px ; background-color: transparent ; border-radius: 0px&quot;&gt;legacyRenderSubtreeIntoContainer（&lt;font color=&quot;#330000&quot; style=&quot;font-size: 16px&quot;&gt;创建&lt;/font&gt;&lt;/code&gt;fiberRootNode、rootFiber、updateQueue）&lt;/pre&gt;&lt;/pre&gt;" style="rounded=0;whiteSpace=wrap;html=1;fillColor=#FFFFFF;" parent="XqVWHYIMarAri33oOuAz-1" vertex="1">
          <mxGeometry x="-135" y="10" width="750" height="60" as="geometry" />
        </mxCell>
        <mxCell id="WqtkJ0UClnYk493TSoWW-4" value="" style="edgeStyle=orthogonalEdgeStyle;rounded=0;orthogonalLoop=1;jettySize=auto;html=1;" parent="XqVWHYIMarAri33oOuAz-1" source="WqtkJ0UClnYk493TSoWW-1" target="WqtkJ0UClnYk493TSoWW-3" edge="1">
          <mxGeometry relative="1" as="geometry" />
        </mxCell>
        <mxCell id="WqtkJ0UClnYk493TSoWW-1" value="&lt;span style=&quot;color: rgb(51 , 51 , 51) ; font-family: &amp;#34;vollkorn&amp;#34; , &amp;#34;palatino&amp;#34; , &amp;#34;times&amp;#34; ; font-size: 19px ; text-align: justify ; background-color: rgb(254 , 254 , 254)&quot;&gt;updateContainer&lt;code style=&quot;background-color: transparent ; text-align: left ; color: rgb(0 , 0 , 0) ; padding: 0px ; margin: 0px ; font-size: 0.85em ; border-radius: 0px&quot;&gt;&lt;font color=&quot;#330000&quot;&gt;(&lt;/font&gt;&lt;/code&gt;&lt;span style=&quot;background-color: transparent ; font-family: &amp;#34;consolas&amp;#34; , &amp;#34;monaco&amp;#34; , &amp;#34;andale mono&amp;#34; , &amp;#34;ubuntu mono&amp;#34; , monospace ; font-size: 16px ; text-align: left ; color: rgb(0 , 0 , 0)&quot;&gt;创建Update对象)&lt;/span&gt;&lt;br&gt;&lt;/span&gt;" style="whiteSpace=wrap;html=1;rounded=0;fillColor=#FFFFFF;" parent="XqVWHYIMarAri33oOuAz-1" vertex="1">
          <mxGeometry y="120" width="480" height="60" as="geometry" />
        </mxCell>
        <mxCell id="WqtkJ0UClnYk493TSoWW-7" value="" style="edgeStyle=orthogonalEdgeStyle;rounded=0;orthogonalLoop=1;jettySize=auto;html=1;" parent="XqVWHYIMarAri33oOuAz-1" source="WqtkJ0UClnYk493TSoWW-3" target="WqtkJ0UClnYk493TSoWW-6" edge="1">
          <mxGeometry relative="1" as="geometry" />
        </mxCell>
        <mxCell id="WqtkJ0UClnYk493TSoWW-3" value="&lt;div style=&quot;text-align: left ; font-size: 16px&quot;&gt;&lt;font color=&quot;#330000&quot; style=&quot;font-size: 16px&quot;&gt;&lt;span style=&quot;font-family: &amp;#34;vollkorn&amp;#34; , &amp;#34;palatino&amp;#34; , &amp;#34;times&amp;#34; ; text-align: justify ; background-color: rgb(254 , 254 , 254)&quot;&gt;sc&lt;/span&gt;&lt;span style=&quot;font-family: &amp;#34;vollkorn&amp;#34; , &amp;#34;palatino&amp;#34; , &amp;#34;times&amp;#34; ; text-align: justify ; background-color: rgb(254 , 254 , 254)&quot;&gt;h&lt;/span&gt;&lt;span style=&quot;font-family: &amp;#34;vollkorn&amp;#34; , &amp;#34;palatino&amp;#34; , &amp;#34;times&amp;#34; ; text-align: justify ; background-color: rgb(254 , 254 , 254)&quot;&gt;e&lt;/span&gt;&lt;span style=&quot;font-family: &amp;#34;vollkorn&amp;#34; , &amp;#34;palatino&amp;#34; , &amp;#34;times&amp;#34; ; text-align: justify ; background-color: rgb(254 , 254 , 254)&quot;&gt;du&lt;/span&gt;&lt;span style=&quot;font-family: &amp;#34;vollkorn&amp;#34; , &amp;#34;palatino&amp;#34; , &amp;#34;times&amp;#34; ; text-align: justify ; background-color: rgb(254 , 254 , 254)&quot;&gt;leUpdateOnFiber&lt;/span&gt;&lt;span style=&quot;text-align: justify ; background-color: rgb(254 , 254 , 254)&quot;&gt;&lt;font face=&quot;monospace&quot; style=&quot;font-size: 16px&quot;&gt;（在Fiber中调度update）&lt;/font&gt;&lt;/span&gt;&lt;/font&gt;&lt;/div&gt;&lt;div style=&quot;text-align: left ; font-size: 16px&quot;&gt;&lt;span style=&quot;background-color: transparent&quot;&gt;&lt;font color=&quot;#330000&quot; style=&quot;font-size: 16px&quot;&gt;ensureRootIsScheduled（调度跟节点）&lt;/font&gt;&lt;/span&gt;&lt;/div&gt;" style="whiteSpace=wrap;html=1;rounded=0;fillColor=#FFFFFF;" parent="XqVWHYIMarAri33oOuAz-1" vertex="1">
          <mxGeometry x="-81.25" y="250" width="642.5" height="60" as="geometry" />
        </mxCell>
        <mxCell id="WqtkJ0UClnYk493TSoWW-9" value="" style="edgeStyle=orthogonalEdgeStyle;rounded=0;orthogonalLoop=1;jettySize=auto;html=1;" parent="XqVWHYIMarAri33oOuAz-1" source="WqtkJ0UClnYk493TSoWW-6" target="WqtkJ0UClnYk493TSoWW-8" edge="1">
          <mxGeometry relative="1" as="geometry" />
        </mxCell>
        <mxCell id="WqtkJ0UClnYk493TSoWW-6" value="&lt;pre class=&quot;language-sh&quot; style=&quot;background: transparent ; font-family: &amp;#34;consolas&amp;#34; , &amp;#34;monaco&amp;#34; , &amp;#34;andale mono&amp;#34; , &amp;#34;ubuntu mono&amp;#34; , monospace ; font-size: 16px ; text-align: left ; word-break: normal ; overflow-wrap: normal ; line-height: 1.4 ; padding: 1.25rem 1.5rem ; margin-top: 0.85rem ; margin-bottom: 0.85rem ; overflow: auto ; border-radius: 6px ; position: relative ; z-index: 1&quot;&gt;&lt;font color=&quot;#330000&quot;&gt;&lt;code style=&quot;padding: 0px ; margin: 0px ; background-color: transparent ; border-radius: 0px&quot;&gt;&lt;font style=&quot;font-size: 16px&quot;&gt;&lt;span class=&quot;token variable&quot;&gt;performSyncWorkOnRoot | &lt;/span&gt;&lt;span class=&quot;token variable&quot;&gt;performConcurrentWorkOnRoot (&lt;/span&gt;&lt;/font&gt;&lt;/code&gt;render阶段)&lt;/font&gt;&lt;/pre&gt;" style="whiteSpace=wrap;html=1;rounded=0;fillColor=#FFFFFF;" parent="XqVWHYIMarAri33oOuAz-1" vertex="1">
          <mxGeometry x="-115" y="390" width="710" height="60" as="geometry" />
        </mxCell>
        <mxCell id="WqtkJ0UClnYk493TSoWW-8" value="&lt;pre class=&quot;language-sh&quot; style=&quot;background: transparent ; font-family: &amp;#34;consolas&amp;#34; , &amp;#34;monaco&amp;#34; , &amp;#34;andale mono&amp;#34; , &amp;#34;ubuntu mono&amp;#34; , monospace ; font-size: 16px ; text-align: left ; word-break: normal ; overflow-wrap: normal ; line-height: 1.4 ; padding: 1.25rem 1.5rem ; margin-top: 0.85rem ; margin-bottom: 0.85rem ; overflow: auto ; border-radius: 6px ; position: relative ; z-index: 1&quot;&gt;&lt;font color=&quot;#330000&quot;&gt;&lt;code style=&quot;padding: 0px ; margin: 0px ; background-color: transparent ; border-radius: 0px&quot;&gt;&lt;span class=&quot;token variable&quot;&gt;&lt;font style=&quot;font-size: 16px&quot;&gt;commitRoot（&lt;/font&gt;&lt;/span&gt;&lt;/code&gt;commit阶段）&lt;/font&gt;&lt;/pre&gt;" style="whiteSpace=wrap;html=1;rounded=0;fillColor=#FFFFFF;" parent="XqVWHYIMarAri33oOuAz-1" vertex="1">
          <mxGeometry x="110" y="530" width="260" height="60" as="geometry" />
        </mxCell>
      </root>
    </mxGraphModel>
  </diagram>
  <diagram id="AKlRvEp3978I-dRj6WrD" name="Page-3">
    <mxGraphModel dx="1426" dy="803" grid="1" gridSize="10" guides="1" tooltips="1" connect="1" arrows="1" fold="1" page="1" pageScale="1" pageWidth="827" pageHeight="1169" math="0" shadow="0">
      <root>
        <mxCell id="CxsiBZp---OUuzThcZeD-0" />
        <mxCell id="CxsiBZp---OUuzThcZeD-1" parent="CxsiBZp---OUuzThcZeD-0" />
        <mxCell id="CxsiBZp---OUuzThcZeD-2" value="&lt;font style=&quot;font-size: 16px&quot;&gt;FiberRootNode&lt;/font&gt;" style="rounded=0;whiteSpace=wrap;html=1;" vertex="1" parent="CxsiBZp---OUuzThcZeD-1">
          <mxGeometry x="190" y="200" width="120" height="60" as="geometry" />
        </mxCell>
        <mxCell id="CxsiBZp---OUuzThcZeD-3" value="&lt;font style=&quot;font-size: 16px&quot;&gt;rootFiber&lt;/font&gt;" style="rounded=0;whiteSpace=wrap;html=1;" vertex="1" parent="CxsiBZp---OUuzThcZeD-1">
          <mxGeometry x="100" y="370" width="120" height="60" as="geometry" />
        </mxCell>
        <mxCell id="CxsiBZp---OUuzThcZeD-4" value="" style="endArrow=classic;startArrow=classic;html=1;entryX=0.5;entryY=1;entryDx=0;entryDy=0;exitX=0.5;exitY=0;exitDx=0;exitDy=0;" edge="1" parent="CxsiBZp---OUuzThcZeD-1" source="CxsiBZp---OUuzThcZeD-3" target="CxsiBZp---OUuzThcZeD-2">
          <mxGeometry width="50" height="50" relative="1" as="geometry">
            <mxPoint x="160" y="360" as="sourcePoint" />
            <mxPoint x="210" y="310" as="targetPoint" />
          </mxGeometry>
        </mxCell>
        <mxCell id="CxsiBZp---OUuzThcZeD-7" value="&lt;font style=&quot;font-size: 16px&quot; color=&quot;#7aafff&quot;&gt;current&lt;/font&gt;" style="edgeLabel;html=1;align=center;verticalAlign=middle;resizable=0;points=[];" vertex="1" connectable="0" parent="CxsiBZp---OUuzThcZeD-4">
          <mxGeometry x="-0.0218" y="-1" relative="1" as="geometry">
            <mxPoint x="-45.1" y="-6.46" as="offset" />
          </mxGeometry>
        </mxCell>
        <mxCell id="CxsiBZp---OUuzThcZeD-8" value="&lt;font style=&quot;font-size: 16px&quot; color=&quot;#7aafff&quot;&gt;stateNode&lt;/font&gt;" style="text;html=1;align=center;verticalAlign=middle;resizable=0;points=[];autosize=1;" vertex="1" parent="CxsiBZp---OUuzThcZeD-1">
          <mxGeometry x="230" y="300" width="90" height="20" as="geometry" />
        </mxCell>
      </root>
    </mxGraphModel>
  </diagram>
</mxfile>
